<svg xmlns="http://www.w3.org/2000/svg" viewBox="0 0 1281.6 729.6" width="1281.6" height="729.6" id="hrsvg">
  <defs>
    <clipPath id="cc">
      <rect width="1281.6" height="729.6"></rect>
    </clipPath>
  </defs>

  <!-- Base background -->
  <rect width="1281.6" height="729.6" fill="#E8F4FB"></rect>

  <!-- Large soft blobs -->
  <ellipse cx="-30" cy="100" rx="260" ry="200" fill="#C2DDF0" opacity="0.65" clip-path="url(#cc)"></ellipse>
  <ellipse cx="80" cy="-20" rx="180" ry="140" fill="#A9CCE3" opacity="0.45" clip-path="url(#cc)"></ellipse>
  <ellipse cx="1330" cy="60" rx="280" ry="200" fill="#CBE4F3" opacity="0.6" clip-path="url(#cc)"></ellipse>
  <ellipse cx="1260" cy="140" rx="160" ry="120" fill="#A4C8E0" opacity="0.4" clip-path="url(#cc)"></ellipse>
  <ellipse cx="-20" cy="700" rx="220" ry="170" fill="#B3D5E8" opacity="0.55" clip-path="url(#cc)"></ellipse>
  <ellipse cx="1310" cy="720" rx="280" ry="190" fill="#C0DDF0" opacity="0.5" clip-path="url(#cc)"></ellipse>
  <ellipse cx="640" cy="730" rx="320" ry="120" fill="#D0E9F6" opacity="0.35" clip-path="url(#cc)"></ellipse>
  <ellipse cx="640" cy="-10" rx="280" ry="90" fill="#D0E9F6" opacity="0.3" clip-path="url(#cc)"></ellipse>

  <!-- Teal accent blob -->
  <ellipse cx="1050" cy="580" rx="200" ry="150" fill="#A8DDD5" opacity="0.3" clip-path="url(#cc)"></ellipse>
  <ellipse cx="180" cy="520" rx="160" ry="120" fill="#A8DDD5" opacity="0.22" clip-path="url(#cc)"></ellipse>

  <!-- Hexagon grid top-left -->
  <g opacity="0.14" clip-path="url(#cc)">
    <polygon points="60,10 100,10 120,44 100,78 60,78 40,44" fill="#1A5276" stroke="#2471A3" stroke-width="1.2"></polygon>
    <polygon points="120,44 160,44 180,78 160,112 120,112 100,78" fill="#1A5276" stroke="#2471A3" stroke-width="1.2"></polygon>
    <polygon points="0,44 40,44 60,78 40,112 0,112 -20,78" fill="#1A5276" stroke="#2471A3" stroke-width="1.2"></polygon>
    <polygon points="60,78 100,78 120,112 100,146 60,146 40,112" fill="#1A5276" stroke="#2471A3" stroke-width="1.2"></polygon>
    <polygon points="120,112 160,112 180,146 160,180 120,180 100,146" fill="#1A5276" stroke="#2471A3" stroke-width="1.2"></polygon>
    <polygon points="0,112 40,112 60,146 40,180 0,180 -20,146" fill="#1A5276" stroke="#2471A3" stroke-width="1.2"></polygon>
    <polygon points="60,146 100,146 120,180 100,214 60,214 40,180" fill="#1A5276" stroke="#2471A3" stroke-width="1.2"></polygon>
  </g>

  <!-- Hexagon grid bottom-right -->
  <g opacity="0.13" clip-path="url(#cc)">
    <polygon points="1100,580 1140,580 1160,614 1140,648 1100,648 1080,614" fill="#0E6655" stroke="#17A589" stroke-width="1.2"></polygon>
    <polygon points="1160,614 1200,614 1220,648 1200,682 1160,682 1140,648" fill="#0E6655" stroke="#17A589" stroke-width="1.2"></polygon>
    <polygon points="1040,614 1080,614 1100,648 1080,682 1040,682 1020,648" fill="#0E6655" stroke="#17A589" stroke-width="1.2"></polygon>
    <polygon points="1100,648 1140,648 1160,682 1140,716 1100,716 1080,682" fill="#0E6655" stroke="#17A589" stroke-width="1.2"></polygon>
    <polygon points="1160,682 1200,682 1220,716 1200,750 1160,750 1140,716" fill="#0E6655" stroke="#17A589" stroke-width="1.2"></polygon>
    <polygon points="1040,682 1080,682 1100,716 1080,750 1040,750 1020,716" fill="#0E6655" stroke="#17A589" stroke-width="1.2"></polygon>
  </g>

  <!-- Dot grid pattern center -->
  <g opacity="0.09" fill="#1A5276">
    <circle cx="380" cy="160" r="3.5"></circle><circle cx="430" cy="160" r="3.5"></circle><circle cx="480" cy="160" r="3.5"></circle><circle cx="530" cy="160" r="3.5"></circle><circle cx="580" cy="160" r="3.5"></circle><circle cx="630" cy="160" r="3.5"></circle><circle cx="680" cy="160" r="3.5"></circle><circle cx="730" cy="160" r="3.5"></circle><circle cx="780" cy="160" r="3.5"></circle><circle cx="830" cy="160" r="3.5"></circle><circle cx="880" cy="160" r="3.5"></circle>
    <circle cx="380" cy="210" r="3.5"></circle><circle cx="430" cy="210" r="3.5"></circle><circle cx="480" cy="210" r="3.5"></circle><circle cx="530" cy="210" r="3.5"></circle><circle cx="580" cy="210" r="3.5"></circle><circle cx="630" cy="210" r="3.5"></circle><circle cx="680" cy="210" r="3.5"></circle><circle cx="730" cy="210" r="3.5"></circle><circle cx="780" cy="210" r="3.5"></circle><circle cx="830" cy="210" r="3.5"></circle><circle cx="880" cy="210" r="3.5"></circle>
  </g>
  <g opacity="0.08" fill="#0E6655">
    <circle cx="380" cy="520" r="3.5"></circle><circle cx="430" cy="520" r="3.5"></circle><circle cx="480" cy="520" r="3.5"></circle><circle cx="530" cy="520" r="3.5"></circle><circle cx="580" cy="520" r="3.5"></circle><circle cx="630" cy="520" r="3.5"></circle><circle cx="680" cy="520" r="3.5"></circle><circle cx="730" cy="520" r="3.5"></circle><circle cx="780" cy="520" r="3.5"></circle><circle cx="830" cy="520" r="3.5"></circle><circle cx="880" cy="520" r="3.5"></circle>
    <circle cx="380" cy="570" r="3.5"></circle><circle cx="430" cy="570" r="3.5"></circle><circle cx="480" cy="570" r="3.5"></circle><circle cx="530" cy="570" r="3.5"></circle><circle cx="580" cy="570" r="3.5"></circle><circle cx="630" cy="570" r="3.5"></circle><circle cx="680" cy="570" r="3.5"></circle><circle cx="730" cy="570" r="3.5"></circle><circle cx="780" cy="570" r="3.5"></circle><circle cx="830" cy="570" r="3.5"></circle><circle cx="880" cy="570" r="3.5"></circle>
  </g>

  <!-- Subtle wave lines -->
  <g fill="none" stroke="#2471A3" stroke-width="1.8" opacity="0.1">
    <path d="M0 365 Q160 330 320 365 Q480 400 640 365 Q800 330 960 365 Q1120 400 1281.6 365"></path>
    <path d="M0 390 Q160 355 320 390 Q480 425 640 390 Q800 355 960 390 Q1120 425 1281.6 390"></path>
  </g>

  <!-- Diagonal accent lines top-right -->
  <g stroke="#1A5276" stroke-width="1.2" opacity="0.1" fill="none">
    <line x1="1060" y1="0" x2="1281.6" y2="120"></line>
    <line x1="1090" y1="0" x2="1281.6" y2="95"></line>
    <line x1="1030" y1="0" x2="1281.6" y2="145"></line>
    <line x1="1120" y1="0" x2="1281.6" y2="72"></line>
  </g>

  <!-- Diagonal accent lines bottom-left -->
  <g stroke="#0E6655" stroke-width="1.2" opacity="0.1" fill="none">
    <line x1="0" y1="600" x2="200" y2="729.6"></line>
    <line x1="0" y1="625" x2="170" y2="729.6"></line>
    <line x1="0" y1="575" x2="225" y2="729.6"></line>
    <line x1="0" y1="550" x2="255" y2="729.6"></line>
  </g>

  <!-- Subtle rings center -->
  <circle cx="640" cy="365" r="150" fill="none" stroke="#2471A3" stroke-width="0.8" opacity="0.08"></circle>
  <circle cx="640" cy="365" r="210" fill="none" stroke="#117A65" stroke-width="0.8" opacity="0.06"></circle>
  <circle cx="640" cy="365" r="270" fill="none" stroke="#2471A3" stroke-width="0.8" opacity="0.05"></circle>

  <!-- Calendar icon top-right -->
  <g transform="translate(1090,42)" opacity="0.2">
    <rect x="0" y="8" width="80" height="72" rx="7" fill="#C8DFF0" stroke="#2471A3" stroke-width="2"></rect>
    <line x1="0" y1="32" x2="80" y2="32" stroke="#2471A3" stroke-width="2"></line>
    <line x1="20" y1="0" x2="20" y2="18" stroke="#2471A3" stroke-width="2"></line>
    <line x1="60" y1="0" x2="60" y2="18" stroke="#2471A3" stroke-width="2"></line>
    <rect x="10" y="40" width="14" height="11" rx="2" fill="#2471A3" opacity="0.65"></rect>
    <rect x="33" y="40" width="14" height="11" rx="2" fill="#2471A3" opacity="0.35"></rect>
    <rect x="56" y="40" width="14" height="11" rx="2" fill="#2471A3" opacity="0.35"></rect>
    <rect x="10" y="58" width="14" height="11" rx="2" fill="#2471A3" opacity="0.35"></rect>
    <rect x="33" y="58" width="14" height="11" rx="2" fill="#117A65" opacity="0.6"></rect>
    <rect x="56" y="58" width="14" height="11" rx="2" fill="#2471A3" opacity="0.35"></rect>
  </g>

  <!-- Medical cross bottom-left -->
  <g transform="translate(90,560)" opacity="0.18">
    <rect x="25" y="0" width="25" height="75" rx="5" fill="#A9CCE3"></rect>
    <rect x="0" y="25" width="75" height="25" rx="5" fill="#A9CCE3"></rect>
    <rect x="27" y="2" width="21" height="71" rx="4" fill="#D4EAF7"></rect>
    <rect x="2" y="27" width="71" height="21" rx="4" fill="#D4EAF7"></rect>
  </g>

  <!-- Person icon top-left area -->
  <g transform="translate(60,240)" opacity="0.17">
    <circle cx="36" cy="18" r="18" fill="#B2D5EA"></circle>
    <path d="M0 72 Q0 45 36 45 Q72 45 72 72" fill="#B2D5EA"></path>
    <circle cx="36" cy="18" r="14" fill="#D4EAF7"></circle>
    <path d="M5 72 Q5 49 36 49 Q67 49 67 72" fill="#D4EAF7"></path>
  </g>

  <!-- Checkmark icon bottom-right -->
  <g transform="translate(1150,600)" opacity="0.2">
    <circle cx="36" cy="36" r="34" fill="#C5E8E0" stroke="#117A65" stroke-width="2.5"></circle>
    <path d="M18 36 L30 48 L54 24" stroke="#117A65" stroke-width="3.5" stroke-linecap="round" stroke-linejoin="round" fill="none"></path>
  </g>

  <!-- Scattered small dots decoration -->
  <g opacity="0.2" fill="#2471A3">
    <circle cx="310" cy="55" r="4"></circle><circle cx="345" cy="80" r="3"></circle><circle cx="280" cy="85" r="3.5"></circle>
    <circle cx="370" cy="45" r="3"></circle><circle cx="330" cy="30" r="2.5"></circle>
  </g>
  <g opacity="0.18" fill="#117A65">
    <circle cx="940" cy="660" r="4"></circle><circle cx="975" cy="640" r="3"></circle><circle cx="910" cy="648" r="3.5"></circle>
    <circle cx="1000" cy="670" r="3"></circle><circle cx="960" cy="685" r="2.5"></circle>
  </g>

  <!-- Top-right small floating circle accents -->
  <circle cx="980" cy="80" r="18" fill="#B2D5EA" opacity="0.3"></circle>
  <circle cx="1010" cy="55" r="10" fill="#A8DDD5" opacity="0.3"></circle>
  <circle cx="955" cy="50" r="7" fill="#A9CCE3" opacity="0.25"></circle>

  <!-- Bottom-left small circles -->
  <circle cx="290" cy="660" r="18" fill="#B2D5EA" opacity="0.28"></circle>
  <circle cx="260" cy="690" r="10" fill="#A8DDD5" opacity="0.28"></circle>
  <circle cx="320" cy="690" r="7" fill="#A9CCE3" opacity="0.22"></circle>

</svg>